<svg width="32" height="32" viewBox="0 0 32 32" fill="none" xmlns="http://www.w3.org/2000/svg">
<path fill-rule="evenodd" clip-rule="evenodd" d="M20.0009 14.8272C19.7149 14.2285 19.324 13.6675 18.8281 13.1716C16.4849 10.8285 12.686 10.8284 10.3428 13.1716L6.80727 16.7071C4.46413 19.0503 4.46413 22.8493 6.80727 25.1924C9.15042 27.5356 12.9494 27.5356 15.2926 25.1924L17.9148 22.5702C17.0521 22.624 16.1825 22.5387 15.3422 22.3143L13.8783 23.7782C12.3162 25.3403 9.78359 25.3403 8.22149 23.7782C6.65939 22.2161 6.65939 19.6834 8.22149 18.1213L11.757 14.5858C13.3191 13.0237 15.8518 13.0237 17.4139 14.5858C17.9108 15.0827 18.2497 15.6779 18.4304 16.3088C18.5723 16.2249 18.7061 16.122 18.8281 16L20.0009 14.8272Z" fill="#0C85DC"/>
<path fill-rule="evenodd" clip-rule="evenodd" d="M18.1213 8.22166L16.7071 6.80745L16.7074 6.8071C19.0506 4.46395 22.8496 4.46396 25.1927 6.8071C27.5359 9.15025 27.5359 12.9492 25.1927 15.2924L21.6572 18.8279C19.314 21.1711 15.5151 21.1711 13.1719 18.8279C12.676 18.332 12.2851 17.771 11.9991 17.1723L13.1719 15.9995C13.2939 15.8775 13.4277 15.7746 13.5696 15.6907C13.7503 16.3216 14.0892 16.9168 14.5861 17.4137C16.1482 18.9758 18.6809 18.9758 20.243 17.4137L23.7785 13.8782C25.3406 12.3161 25.3406 9.78341 23.7785 8.22131C22.2164 6.65922 19.6838 6.65922 18.1217 8.22131L18.1213 8.22166Z" fill="#0CDC53"/>
<path d="M14.5857 10.343L19.5354 9.63589L15.2928 5.39325L14.5857 10.343Z" fill="#0CDC53"/>
</svg>
